<svg xmlns="http://www.w3.org/2000/svg" width="15.11" height="13.304" viewBox="0 0 15.11 13.304">
  <g id="Speech_Bubble_48_" transform="translate(0 -30.536)">
    <g id="Group_20" data-name="Group 20" transform="translate(0 30.536)">
      <path id="Path_4" data-name="Path 4" d="M2.2,43.84l-.543-.422.23-.335a2.562,2.562,0,0,0,.732-1.515A5.77,5.77,0,0,1,.356,38.895,5.236,5.236,0,0,1,.2,35.54a6.568,6.568,0,0,1,2.517-3.514,8.224,8.224,0,0,1,4.858-1.49A8.145,8.145,0,0,1,13.2,32.45a5.746,5.746,0,0,1,1.433,6.582,5.91,5.91,0,0,1-1.437,2A8.126,8.126,0,0,1,7.58,42.953a10.211,10.211,0,0,1-2.54-.323A3.967,3.967,0,0,1,2.2,43.84ZM7.58,31.423c-3.667,0-5.917,2.187-6.521,4.354a4.465,4.465,0,0,0,2.248,5.177l.221.133-.007.258a3.492,3.492,0,0,1-.353,1.447,3.142,3.142,0,0,0,1.389-.951l.187-.222.278.083a9.173,9.173,0,0,0,2.557.362c4.564,0,6.643-2.763,6.643-5.331A4.878,4.878,0,0,0,12.6,33.1,7.281,7.281,0,0,0,7.58,31.423Z" transform="translate(0 -30.536)" fill="#a6a6a6"/>
    </g>
  </g>
</svg>
