<svg xmlns="http://www.w3.org/2000/svg" width="14.41" height="12.82" viewBox="0 0 14.41 12.82">
  <path id="heart_1_" data-name="heart (1)" d="M13.267,1.255A3.875,3.875,0,0,0,10.385,0,3.625,3.625,0,0,0,8.121.782a4.632,4.632,0,0,0-.915.956A4.63,4.63,0,0,0,6.29.782,3.625,3.625,0,0,0,4.026,0,3.875,3.875,0,0,0,1.144,1.255,4.5,4.5,0,0,0,0,4.331,5.363,5.363,0,0,0,1.43,7.841,30.476,30.476,0,0,0,5.007,11.2c.5.422,1.058.9,1.641,1.411a.846.846,0,0,0,1.114,0c.583-.51,1.146-.989,1.642-1.412a30.459,30.459,0,0,0,3.577-3.358A5.363,5.363,0,0,0,14.41,4.33a4.5,4.5,0,0,0-1.143-3.076Zm0,0" transform="translate(0)" fill="#bf917b"/>
</svg>
