<svg xmlns="http://www.w3.org/2000/svg" width="14.41" height="12.82" viewBox="0 0 14.41 12.82">
  <path id="heart" d="M7.2,12.82a.845.845,0,0,1-.557-.209C6.066,12.1,5.5,11.624,5.009,11.2l0,0A30.473,30.473,0,0,1,1.429,7.841,5.363,5.363,0,0,1,0,4.331,4.5,4.5,0,0,1,1.143,1.255,3.875,3.875,0,0,1,4.026,0,3.625,3.625,0,0,1,6.29.782a4.632,4.632,0,0,1,.915.956A4.633,4.633,0,0,1,8.12.782,3.625,3.625,0,0,1,10.384,0a3.875,3.875,0,0,1,2.882,1.255A4.5,4.5,0,0,1,14.41,4.331a5.363,5.363,0,0,1-1.429,3.511A30.469,30.469,0,0,1,9.4,11.2c-.5.423-1.058.9-1.642,1.412a.846.846,0,0,1-.557.209ZM4.026.844a3.04,3.04,0,0,0-2.262.983,3.664,3.664,0,0,0-.92,2.5A4.513,4.513,0,0,0,2.079,7.3a29.987,29.987,0,0,0,3.475,3.254l0,0c.5.424,1.06.9,1.647,1.417.59-.514,1.154-.995,1.652-1.419A30,30,0,0,0,12.331,7.3a4.513,4.513,0,0,0,1.235-2.972,3.664,3.664,0,0,0-.92-2.5A3.04,3.04,0,0,0,10.385.844a2.8,2.8,0,0,0-1.748.605,4.1,4.1,0,0,0-.974,1.127.533.533,0,0,1-.915,0,4.092,4.092,0,0,0-.974-1.127A2.8,2.8,0,0,0,4.026.844Zm0,0" transform="translate(0 0)" fill="#a7a7a7"/>
</svg>
